<svg width="97" height="12" viewBox="0 0 97 12" fill="none" xmlns="http://www.w3.org/2000/svg">
<path d="M0.118608 0.818182H1.98295L5.22443 8.73295H5.34375L8.58523 0.818182H10.4496V11H8.98793V3.6321H8.89347L5.89062 10.9851H4.67756L1.67472 3.62713H1.58026V11H0.118608V0.818182ZM13.5431 11H11.9125L15.5765 0.818182H17.3514L21.0154 11H19.3848L16.5062 2.66761H16.4267L13.5431 11ZM13.8166 7.01278H19.1064V8.3054H13.8166V7.01278ZM23.5547 0.818182L25.9908 4.80043H26.0703L28.5064 0.818182H30.2862L27.1143 5.90909L30.3061 11H28.5163L26.0703 7.07244H25.9908L23.5447 11H21.755L25.0014 5.90909L21.7749 0.818182H23.5547ZM32.8789 0.818182L35.315 4.80043H35.3945L37.8306 0.818182H39.6104L36.4386 5.90909L39.6303 11H37.8406L35.3945 7.07244H35.315L32.869 11H31.0792L34.3256 5.90909L31.0991 0.818182H32.8789Z" fill="#B91B5D"/>
<path d="M40.6719 11V0.818182H45.0866C45.8622 0.818182 46.5135 0.922585 47.0405 1.13139C47.5708 1.3402 47.9702 1.63518 48.2386 2.01633C48.5104 2.39749 48.6463 2.84659 48.6463 3.36364C48.6463 3.73816 48.5634 4.07954 48.3977 4.38778C48.2353 4.69602 48.0066 4.95455 47.7116 5.16335C47.4167 5.36884 47.072 5.51136 46.6776 5.59091V5.69034C47.1151 5.70691 47.5128 5.81794 47.8707 6.02344C48.2287 6.22562 48.5137 6.50568 48.7259 6.86364C48.938 7.21828 49.044 7.63589 49.044 8.11648C49.044 8.6733 48.8982 9.1688 48.6065 9.60298C48.3182 10.0372 47.9072 10.3786 47.3736 10.6271C46.84 10.8757 46.2036 11 45.4645 11H40.6719ZM43.4361 8.79261H44.7287C45.1927 8.79261 45.5407 8.70644 45.7727 8.53409C46.0047 8.35843 46.1207 8.09991 46.1207 7.75852C46.1207 7.51989 46.0661 7.31771 45.9567 7.15199C45.8473 6.98627 45.6915 6.86032 45.4893 6.77415C45.2905 6.68797 45.0502 6.64489 44.7685 6.64489H43.4361V8.79261ZM43.4361 4.93466H44.5696C44.8116 4.93466 45.0253 4.89654 45.2109 4.82031C45.3965 4.74408 45.5407 4.63471 45.6435 4.49219C45.7495 4.34635 45.8026 4.16903 45.8026 3.96023C45.8026 3.64536 45.6899 3.40507 45.4645 3.23935C45.2391 3.07031 44.9541 2.9858 44.6094 2.9858H43.4361V4.93466ZM50.0234 11V0.818182H57.3615V3.04545H52.7876V4.79545H56.9837V7.02273H52.7876V8.77273H57.3416V11H50.0234ZM58.454 3.04545V0.818182H67.3034V3.04545H64.2409V11H61.5165V3.04545H58.454ZM72.3409 11.1392C71.5388 11.1392 70.8262 11.0017 70.2031 10.7266C69.5833 10.4482 69.0961 10.0653 68.7415 9.57812C68.3868 9.09091 68.2079 8.53078 68.2045 7.89773H70.9886C70.992 8.09328 71.0516 8.26894 71.1676 8.42472C71.2869 8.57718 71.4493 8.6965 71.6548 8.78267C71.8603 8.86884 72.0956 8.91193 72.3608 8.91193C72.616 8.91193 72.8414 8.86719 73.0369 8.7777C73.2325 8.6849 73.3849 8.55729 73.4943 8.39489C73.6037 8.23248 73.6567 8.04687 73.6534 7.83807C73.6567 7.63258 73.5938 7.45028 73.4645 7.29119C73.3385 7.1321 73.1612 7.00781 72.9325 6.91832C72.7038 6.82884 72.4403 6.78409 72.142 6.78409H71.108V4.875H72.142C72.4171 4.875 72.6591 4.83026 72.8679 4.74077C73.08 4.65128 73.2441 4.52699 73.3601 4.3679C73.4794 4.20881 73.5374 4.02651 73.5341 3.82102C73.5374 3.62216 73.4893 3.4465 73.3899 3.29403C73.2905 3.14157 73.1513 3.02225 72.9723 2.93608C72.7966 2.8499 72.5928 2.80682 72.3608 2.80682C72.1089 2.80682 71.8835 2.85156 71.6847 2.94105C71.4891 3.03054 71.335 3.15483 71.2223 3.31392C71.1096 3.47301 71.0516 3.6553 71.0483 3.8608H68.4034C68.4067 3.23769 68.5774 2.6875 68.9155 2.21023C69.2569 1.73295 69.7242 1.35843 70.3175 1.08665C70.9107 0.814867 71.5919 0.678977 72.3608 0.678977C73.1132 0.678977 73.7777 0.806581 74.3544 1.06179C74.9344 1.317 75.3868 1.66832 75.7116 2.11577C76.0398 2.5599 76.2022 3.06865 76.1989 3.64205C76.2055 4.21212 76.0099 4.67945 75.6122 5.04403C75.2178 5.40862 74.7173 5.62405 74.1108 5.69034V5.76989C74.9328 5.85937 75.5509 6.11127 75.9652 6.52557C76.3795 6.93655 76.5833 7.4536 76.5767 8.0767C76.58 8.6733 76.401 9.20194 76.0398 9.66264C75.6818 10.1233 75.183 10.4846 74.5433 10.7464C73.907 11.0083 73.1728 11.1392 72.3409 11.1392ZM82.0666 11.1392C81.4733 11.1392 80.9099 11.0464 80.3762 10.8608C79.8459 10.6719 79.3753 10.3752 78.9643 9.97088C78.5533 9.56652 78.2302 9.03954 77.9949 8.38991C77.7628 7.74029 77.6485 6.95312 77.6518 6.02841C77.6551 5.20312 77.7612 4.4607 77.97 3.80114C78.1821 3.14157 78.4821 2.57978 78.8699 2.11577C79.2609 1.65175 79.7283 1.29711 80.2718 1.05185C80.8154 0.803267 81.4203 0.678977 82.0865 0.678977C82.8355 0.678977 83.4951 0.823153 84.0652 1.11151C84.6352 1.39986 85.0893 1.78598 85.4274 2.26989C85.7688 2.75047 85.9676 3.28078 86.024 3.8608H83.2995C83.2366 3.57244 83.0907 3.36198 82.862 3.2294C82.6367 3.09351 82.3781 3.02557 82.0865 3.02557C81.5065 3.02557 81.0806 3.27746 80.8088 3.78125C80.5403 4.28504 80.4028 4.94792 80.3961 5.76989H80.4558C80.585 5.45833 80.7806 5.19152 81.0424 4.96946C81.3043 4.7474 81.6092 4.5767 81.9572 4.45739C82.3052 4.33807 82.6731 4.27841 83.0609 4.27841C83.6774 4.27841 84.216 4.41761 84.6767 4.69602C85.1407 4.97443 85.502 5.35559 85.7605 5.83949C86.019 6.32339 86.1466 6.87689 86.1433 7.5C86.1466 8.22917 85.9743 8.86719 85.6262 9.41406C85.2815 9.96094 84.8026 10.3852 84.1895 10.6868C83.5763 10.9884 82.8687 11.1392 82.0666 11.1392ZM82.0467 9.05114C82.3218 9.05114 82.5654 8.98816 82.7775 8.86222C82.993 8.73627 83.1603 8.56392 83.2797 8.34517C83.4023 8.12642 83.4619 7.87784 83.4586 7.59943C83.4619 7.31771 83.4023 7.06913 83.2797 6.85369C83.1603 6.63494 82.993 6.46259 82.7775 6.33665C82.5654 6.2107 82.3218 6.14773 82.0467 6.14773C81.8445 6.14773 81.6573 6.18419 81.4849 6.2571C81.3159 6.3267 81.1684 6.42779 81.0424 6.56037C80.9165 6.68963 80.8171 6.84375 80.7441 7.02273C80.6745 7.19839 80.6381 7.39062 80.6348 7.59943C80.6381 7.87784 80.7011 8.12642 80.8237 8.34517C80.9463 8.56392 81.1137 8.73627 81.3258 8.86222C81.5379 8.98816 81.7782 9.05114 82.0467 9.05114ZM91.8295 11.2784C90.9048 11.2751 90.1061 11.0613 89.4332 10.6371C88.7604 10.2128 88.2417 9.60133 87.8771 8.80256C87.5125 8.00379 87.3319 7.04593 87.3352 5.92898C87.3385 4.80871 87.5208 3.85748 87.8821 3.07528C88.2467 2.29309 88.7637 1.69815 89.4332 1.29048C90.1061 0.882812 90.9048 0.678977 91.8295 0.678977C92.7543 0.678977 93.553 0.884469 94.2259 1.29545C94.8987 1.70312 95.4174 2.29806 95.782 3.08026C96.1465 3.86245 96.3272 4.81203 96.3239 5.92898C96.3239 7.05256 96.1416 8.01373 95.777 8.8125C95.4124 9.61127 94.8937 10.2228 94.2209 10.647C93.5514 11.0679 92.7543 11.2784 91.8295 11.2784ZM91.8295 9.03125C92.3068 9.03125 92.6979 8.78267 93.0028 8.28551C93.3111 7.78504 93.4635 6.99953 93.4602 5.92898C93.4602 5.22964 93.3906 4.65791 93.2514 4.21378C93.1122 3.76965 92.92 3.44152 92.6747 3.2294C92.4295 3.01397 92.1477 2.90625 91.8295 2.90625C91.3523 2.90625 90.9628 3.1482 90.6612 3.6321C90.3596 4.116 90.2055 4.88163 90.1989 5.92898C90.1955 6.64157 90.2635 7.22822 90.4027 7.68892C90.5419 8.14631 90.7341 8.48438 90.9794 8.70312C91.228 8.92188 91.5114 9.03125 91.8295 9.03125Z" fill="white"/>
</svg>
